<?xml version="1.0" encoding="UTF-8"?>
<svg id="Capa_2" data-name="Capa 2" xmlns="http://www.w3.org/2000/svg" viewBox="0 0 128 128">
  <defs>
    <style>
      .cls-1 {
        fill: none;
        stroke: #4736b5;
        stroke-linecap: round;
        stroke-linejoin: round;
        stroke-width: 6.38px;
      }

      .cls-2 {
        fill: #4736b5;
      }
    </style>
  </defs>
  <path class="cls-2" d="M75.87,54.01h-1.9v-4.42c0-5.33-4.34-9.68-9.68-9.68h-.54c-5.34,0-9.68,4.35-9.68,9.68v4.42h-2.3c-1.95,0-3.52,1.58-3.52,3.52v20.18c0,1.94,1.57,3.52,3.52,3.52h24.1c1.94,0,3.52-1.58,3.52-3.52v-20.18c0-1.94-1.58-3.52-3.52-3.52ZM65.84,69.47l.82,5.23c.06.41-.26.78-.67.78h-4.16c-.42,0-.74-.38-.67-.79l.91-5.17c-1.47-.69-2.49-2.18-2.49-3.92,0-2.4,1.94-4.33,4.33-4.33s4.33,1.94,4.33,4.33c0,1.7-.98,3.17-2.4,3.88ZM70.19,54.01h-12.33v-4.42c0-3.25,2.65-5.89,5.89-5.89h.54c3.25,0,5.89,2.65,5.89,5.89v4.42Z"/>
  <path class="cls-1" d="M62.38,19.32c-11.88,11.43-30.35,12.89-36.24,13.06-1.04.03-1.87.89-1.87,1.93v19.01c0,12.06,3.54,23.9,10.39,33.84,6.05,8.78,15.23,17.77,28.76,21.98.38.12.79.12,1.17,0,14.83-4.62,24.44-14.98,30.42-24.52,5.76-9.18,8.72-19.85,8.72-30.69v-19.62c0-1.05-.83-1.9-1.87-1.93-5.97-.16-24.84-1.6-36.77-13.06-.76-.73-1.94-.73-2.7,0Z"/>
</svg>