<?xml version="1.0" encoding="UTF-8"?>
<svg id="Capa_2" data-name="Capa 2" xmlns="http://www.w3.org/2000/svg" viewBox="0 0 128 128">
  <defs>
    <style>
      .cls-1 {
        stroke-width: 6.38px;
      }

      .cls-1, .cls-2 {
        fill: none;
        stroke: #4736b5;
        stroke-linecap: round;
        stroke-linejoin: round;
      }

      .cls-2 {
        stroke-width: 5px;
      }
    </style>
  </defs>
  <path class="cls-1" d="M62.38,19.32c-11.88,11.43-30.35,12.89-36.24,13.06-1.04.03-1.87.89-1.87,1.93v19.01c0,12.06,3.54,23.9,10.39,33.84,6.05,8.78,15.23,17.77,28.76,21.98.38.12.79.12,1.17,0,14.83-4.62,24.44-14.98,30.42-24.52,5.76-9.18,8.72-19.85,8.72-30.69v-19.62c0-1.05-.83-1.9-1.87-1.93-5.97-.16-24.84-1.6-36.77-13.06-.76-.73-1.94-.73-2.7,0Z"/>
  <polygon class="cls-2" points="64 41.81 71.12 56.28 87.08 58.58 75.52 69.82 78.26 85.71 64 78.2 49.74 85.71 52.48 69.82 40.92 58.58 56.88 56.28 64 41.81"/>
</svg>