<?xml version="1.0" encoding="UTF-8"?>
<svg id="Capa_2" data-name="Capa 2" xmlns="http://www.w3.org/2000/svg" viewBox="0 0 128 128">
  <defs>
    <style>
      .cls-1 {
        fill: none;
        stroke: #4736b5;
        stroke-linecap: round;
        stroke-linejoin: round;
        stroke-width: 5.28px;
      }

      .cls-2 {
        fill: #4736b5;
      }
    </style>
  </defs>
  <line class="cls-1" x1="27.55" y1="97.78" x2="100.45" y2="97.78"/>
  <path class="cls-1" d="M34.55,94.83v-59.92c0-2.59,2.1-4.69,4.69-4.69h34.79c2.59,0,4.69,2.1,4.69,4.69v61.94"/>
  <path class="cls-1" d="M80.01,51.39h10.31c1.42,0,2.58,1.15,2.58,2.58v42.71"/>
  <path class="cls-2" d="M53.92,85.35h5.71c1.63,0,2.94,1.32,2.94,2.94v7.36h-11.6v-7.36c0-1.63,1.32-2.94,2.94-2.94Z"/>
  <rect class="cls-2" x="46.7" y="70.81" width="6.38" height="6.9" rx="2.53" ry="2.53"/>
  <rect class="cls-2" x="60.64" y="70.81" width="6.38" height="6.9" rx="2.53" ry="2.53"/>
  <rect class="cls-2" x="46.7" y="56.64" width="6.38" height="6.9" rx="2.53" ry="2.53"/>
  <rect class="cls-2" x="60.64" y="56.64" width="6.38" height="6.9" rx="2.53" ry="2.53"/>
  <rect class="cls-2" x="46.7" y="42.65" width="6.38" height="6.9" rx="2.53" ry="2.53"/>
  <rect class="cls-2" x="60.64" y="42.65" width="6.38" height="6.9" rx="2.53" ry="2.53"/>
</svg>