<?xml version="1.0" encoding="UTF-8"?>
<svg id="Capa_2" data-name="Capa 2" xmlns="http://www.w3.org/2000/svg" viewBox="0 0 128 128">
  <defs>
    <style>
      .cls-1 {
        fill: #f4f0fa;
      }

      .cls-2 {
        fill: #4b39b6;
      }

      .cls-3 {
        fill: none;
        stroke: #4736b5;
        stroke-linecap: round;
        stroke-linejoin: round;
        stroke-width: 6px;
      }
    </style>
  </defs>
  <g>
    <path class="cls-2" d="M86.77,72.67c.56-.11,1.13.04,1.67.17,3.97.93,8.1,2.84,12.11,3.81.89.53,1.54,1.4,1.64,2.44.3,3.16.23,10.27-.45,13.3-1.43,6.32-7.12,12.63-13.54,14.08-1.43.32-2.27-.04-3.6-.54-5.58-2.09-10.22-7.08-11.76-12.86-1.2-4.49-.3-9.62-.58-14.25.28-1.85,1.55-2.14,3.06-2.65,3.78-1.28,7.67-2.26,11.46-3.5ZM94.26,82.6c-.31.04-.69.23-.92.44l-7.88,7.77c-.16.08-.23,0-.35-.07-1.06-.71-2.37-3.01-3.69-3.13-.59-.06-1.25.21-1.61.68-1.49,2,1.74,3.4,2.57,4.89,1.6,1.11,2.24,3.17,4.36,1.5l9.29-9.34c.8-1.36-.21-2.97-1.78-2.74Z"/>
    <path class="cls-1" d="M94.26,82.6c1.57-.23,2.58,1.38,1.78,2.74l-9.29,9.34c-2.12,1.68-2.76-.38-4.36-1.5-.84-1.5-4.06-2.89-2.57-4.89.35-.48,1.02-.74,1.61-.68,1.32.12,2.63,2.42,3.69,3.13.12.08.19.16.35.07l7.88-7.77c.24-.21.62-.4.92-.44Z"/>
  </g>
  <path class="cls-3" d="M67.64,102.74h-35.37c-3.66,0-6.63-2.97-6.63-6.63V28.04c0-3.66,2.97-6.63,6.63-6.63h36.26l21.78,21.78v23.56"/>
  <polyline class="cls-3" points="68.01 23.85 68.01 43.11 90.38 43.11"/>
  <line class="cls-3" x1="41.64" y1="61.93" x2="71.72" y2="61.93"/>
  <line class="cls-3" x1="41.64" y1="78.37" x2="60.46" y2="78.37"/>
</svg>